<svg width="182" height="182" viewBox="0 0 182 182" fill="none" xmlns="http://www.w3.org/2000/svg">
<g clip-path="url(#clip0_8_5)">
<path d="M94.8381 4C94.8381 1.79086 96.6289 0 98.8381 0H104.716C131.144 0 150.899 6.38361 163.98 19.1508C175.993 30.8467 182 47.4084 182 68.8359C182 87.8528 175.771 103.165 163.313 114.771C150.054 127.092 131.767 133.252 108.453 133.252H98.8381C96.6289 133.252 94.8381 131.462 94.8381 129.252V4ZM-1 4C-1 1.79086 0.790861 0 3 0H66.8118C69.021 0 70.8118 1.79086 70.8118 4V178C70.8118 180.209 69.021 182 66.8118 182H3C0.790865 182 -1 180.209 -1 178V4Z" fill="white"/>
</g>
<defs>
<clipPath id="clip0_8_5">
<rect width="182" height="182" rx="12" fill="white"/>
</clipPath>
</defs>
</svg>
